<svg xmlns="http://www.w3.org/2000/svg"  viewBox="0 0 64 64" width="128px" height="128px"><path fill="#faefde" d="M23.24,4.94H52a3,3,0,0,1,3,3v48a3,3,0,0,1-3,3H14a3,3,0,0,1-3-3V17.18a3,3,0,0,1,.88-2.12l9.24-9.24A3,3,0,0,1,23.24,4.94Z"/><path fill="#fff7f0" d="M11 59L10.85 49.54 54.34 6.06 55 29 25 59 11 59zM10.85 39.15L45.06 4.94 50.81 5.19 11 45 10.85 39.15zM10.85 33.15L39 5 42 5 10.85 36.15 10.85 33.15z"/><path fill="#fff" d="M45.5 13L46.74 15.26 49 16.5 46.74 17.74 45.5 20 44.26 17.74 42 16.5 44.26 15.26 45.5 13zM30.42 11L31.27 12.56 32.84 13.42 31.27 14.27 30.42 15.84 29.56 14.27 28 13.42 29.56 12.56 30.42 11zM16.65 42L17.23 43.06 18.3 43.65 17.23 44.23 16.65 45.3 16.07 44.23 15 43.65 16.07 43.06 16.65 42z"/><path fill="#bbdef9" d="M23 5L23 17 11 17 23 5z"/><path fill="#8d6c9f" d="M53,4H23.66a5,5,0,0,0-3.54,1.46l-8.66,8.66A5,5,0,0,0,10,17.66V57a3,3,0,0,0,3,3H53a3,3,0,0,0,3-3V7A3,3,0,0,0,53,4ZM21.54,6.88A3,3,0,0,1,22,6.5V15a1,1,0,0,1-1,1H12.5a3,3,0,0,1,.38-.46ZM54,57a1,1,0,0,1-1,1H13a1,1,0,0,1-1-1V18h9a3,3,0,0,0,3-3V6H53a1,1,0,0,1,1,1Z"/><path fill="#8d6c9f" d="M45 22H41a1 1 0 0 0 0 2h4a1 1 0 0 0 0-2zM21 24H37a1 1 0 0 0 0-2H21a1 1 0 0 0 0 2zM21 28H41a1 1 0 0 0 0-2H21a1 1 0 0 0 0 2zM33 36H21a1 1 0 0 0 0 2H33a1 1 0 0 0 0-2zM43 32H21a1 1 0 0 0 0 2H43a1 1 0 0 0 0-2zM15 50a1 1 0 0 0-1 1v2a1 1 0 0 0 2 0V51A1 1 0 0 0 15 50zM20 50a1 1 0 0 0-1 1v2a1 1 0 0 0 2 0V51A1 1 0 0 0 20 50zM25 50a1 1 0 0 0-1 1v2a1 1 0 0 0 2 0V51A1 1 0 0 0 25 50zM30 50a1 1 0 0 0-1 1v2a1 1 0 0 0 2 0V51A1 1 0 0 0 30 50zM35 50a1 1 0 0 0-1 1v2a1 1 0 0 0 2 0V51A1 1 0 0 0 35 50zM40 50a1 1 0 0 0-1 1v2a1 1 0 0 0 2 0V51A1 1 0 0 0 40 50zM45 50a1 1 0 0 0-1 1v2a1 1 0 0 0 2 0V51A1 1 0 0 0 45 50zM50 50a1 1 0 0 0-1 1v2a1 1 0 0 0 2 0V51A1 1 0 0 0 50 50z"/></svg>