<svg width="96" height="96" viewBox="0 0 96 96" fill="none" xmlns="http://www.w3.org/2000/svg">
<path d="M48 95.8167C74.4098 95.8167 95.8192 74.4084 95.8192 48C95.8192 21.5916 74.4098 0.183289 48 0.183289C21.5902 0.183289 0.180761 21.5916 0.180761 48C0.180761 74.4084 21.5902 95.8167 48 95.8167Z" fill="url(#paint0_linear_1468_9384)"/>
<path d="M21.1584 26.8279C19.8481 26.8278 18.774 27.8987 18.7741 29.2097V66.7874C18.7736 68.0987 19.8464 69.1744 21.1584 69.1742H74.8423C76.1543 69.1744 77.2273 68.0988 77.2266 66.7874V29.2097C77.2266 27.8987 76.1526 26.8278 74.8423 26.8279H21.1584V26.8279ZM27.5134 32.5364H68.4724L47.9954 50.4277L27.5134 32.5364ZM72.4579 35.3856V61.8173L57.483 48.4685L72.4579 35.3856ZM23.5428 35.4005L38.5798 48.5405L23.5428 61.9466V35.4005V35.4005ZM53.8655 51.6285L68.1119 64.3309H28.0355L42.1998 51.7031L46.4216 55.3927C47.3168 56.1743 48.6638 56.1743 49.5593 55.3927L53.8655 51.6285V51.6285Z" fill="white"/>
<defs>
<linearGradient id="paint0_linear_1468_9384" x1="48" y1="0.183289" x2="48" y2="95.8167" gradientUnits="userSpaceOnUse">
<stop stop-color="#4FBF5A"/>
<stop offset="0.520833" stop-color="#DCF736" stop-opacity="0.65"/>
<stop offset="1" stop-color="#E43B3B" stop-opacity="0.74"/>
</linearGradient>
</defs>
</svg>
