<svg width="100" height="100" viewBox="0 0 100 100" fill="none" xmlns="http://www.w3.org/2000/svg">
<path d="M0 50C0 22.3858 22.3858 0 50 0V0C77.6142 0 100 22.3858 100 50V50C100 77.6142 77.6142 100 50 100V100C22.3858 100 0 77.6142 0 50V50Z" fill="url(#paint0_radial_1466_9276)"/>
<path fill-rule="evenodd" clip-rule="evenodd" d="M16.6075 48.9953C16.6075 30.3873 31.1917 16.6045 50 16.6045C68.8084 16.6045 83.3926 30.3956 83.3926 49.0036C83.3926 67.6116 68.8084 81.3944 50 81.3944C46.619 81.3944 43.3799 80.9436 40.3329 80.1088C39.7402 79.9502 39.1057 79.9919 38.5464 80.2424L31.9179 83.1642C30.1815 83.9323 28.2281 82.6967 28.1696 80.8017L27.986 74.8578C27.9693 74.1232 27.6353 73.4386 27.0927 72.9544C20.5979 67.1441 16.6075 58.7292 16.6075 48.9953ZM39.7562 42.9095L29.9472 58.4704C29.0039 59.9648 30.8404 61.6427 32.2429 60.5742L42.7783 52.5766C43.4878 52.034 44.4729 52.034 45.1909 52.5683L52.9964 58.4203C55.3422 60.1735 58.6814 59.564 60.2425 57.0846L70.0599 41.5321C70.9949 40.0377 69.1583 38.3514 67.7559 39.42L57.2205 47.4175C56.5109 47.9601 55.5258 47.9601 54.8079 47.4258L47.0024 41.5738C44.6566 39.8207 41.3173 40.4301 39.7562 42.9095Z" fill="white"/>
<defs>
<radialGradient id="paint0_radial_1466_9276" cx="0" cy="0" r="1" gradientUnits="userSpaceOnUse" gradientTransform="translate(19.25 99.4633) scale(108.96 108.95)">
<stop stop-color="#0099FF"/>
<stop offset="0.6098" stop-color="#A033FF"/>
<stop offset="0.9348" stop-color="#FF5280"/>
<stop offset="1" stop-color="#FF7061"/>
</radialGradient>
</defs>
</svg>
