<svg width="100" height="100" viewBox="0 0 100 100" fill="none" xmlns="http://www.w3.org/2000/svg">
<path d="M0 50C0 22.3858 22.3858 0 50 0V0C77.6142 0 100 22.3858 100 50V50C100 77.6142 77.6142 100 50 100V100C22.3858 100 0 77.6142 0 50V50Z" fill="url(#paint0_linear_1467_9343)"/>
<path d="M50.008 25.4076C58.0241 25.4076 58.9651 25.4434 62.1334 25.5863C65.0636 25.7173 66.6477 26.2057 67.7078 26.6226C69.1133 27.1705 70.1138 27.8137 71.162 28.8618C72.2102 29.91 72.8653 30.9105 73.4013 32.316C73.8063 33.3761 74.3065 34.9603 74.4376 37.8904C74.5805 41.0588 74.6162 41.9997 74.6162 50.0159C74.6162 58.032 74.5805 58.973 74.4376 62.1413C74.3065 65.0715 73.8182 66.6556 73.4013 67.7157C72.8534 69.1212 72.2102 70.1218 71.162 71.1699C70.1138 72.2181 69.1133 72.8732 67.7078 73.4092C66.6477 73.8142 65.0636 74.3144 62.1334 74.4455C58.9651 74.5884 58.0241 74.6241 50.008 74.6241C41.9918 74.6241 41.0508 74.5884 37.8825 74.4455C34.9524 74.3144 33.3682 73.8261 32.3081 73.4092C30.9026 72.8613 29.9021 72.2181 28.8539 71.1699C27.8057 70.1218 27.1506 69.1212 26.6146 67.7157C26.2096 66.6556 25.7094 65.0715 25.5783 62.1413C25.4354 58.973 25.3997 58.032 25.3997 50.0159C25.3997 41.9997 25.4354 41.0588 25.5783 37.8904C25.7094 34.9603 26.1977 33.3761 26.6146 32.316C27.1625 30.9105 27.8057 29.91 28.8539 28.8618C29.9021 27.8137 30.9026 27.1585 32.3081 26.6226C33.3682 26.2176 34.9524 25.7173 37.8825 25.5863C41.0508 25.4314 42.0037 25.4076 50.008 25.4076ZM50.008 20C41.8608 20 40.8364 20.0357 37.6324 20.1787C34.4402 20.3216 32.2605 20.8338 30.3547 21.5723C28.3775 22.3346 26.7099 23.3708 25.0424 25.0384C23.3748 26.7059 22.3504 28.3854 21.5762 30.3507C20.8377 32.2565 20.3256 34.4362 20.1826 37.6403C20.0397 40.8324 20.004 41.8568 20.004 50.004C20.004 58.1511 20.0397 59.1755 20.1826 62.3796C20.3256 65.5717 20.8377 67.7515 21.5762 69.6691C22.3385 71.6464 23.3748 73.3139 25.0424 74.9815C26.7099 76.649 28.3894 77.6734 30.3547 78.4476C32.2605 79.1861 34.4402 79.6982 37.6443 79.8412C40.8483 79.9841 41.8608 80.0198 50.0199 80.0198C58.179 80.0198 59.1914 79.9841 62.3955 79.8412C65.5876 79.6982 67.7674 79.1861 69.685 78.4476C71.6623 77.6853 73.3298 76.649 74.9974 74.9815C76.6649 73.3139 77.6893 71.6345 78.4635 69.6691C79.202 67.7634 79.7142 65.5836 79.8571 62.3796C80 59.1755 80.0358 58.163 80.0358 50.004C80.0358 41.8449 80 40.8324 79.8571 37.6284C79.7142 34.4362 79.202 32.2565 78.4635 30.3388C77.7012 28.3616 76.6649 26.694 74.9974 25.0265C73.3298 23.3589 71.6504 22.3346 69.685 21.5603C67.7793 20.8219 65.5995 20.3097 62.3955 20.1668C59.1795 20.0357 58.1551 20 50.008 20Z" fill="white"/>
<path d="M50.0079 34.603C41.5034 34.603 34.595 41.4995 34.595 50.0159C34.595 58.5323 41.4915 65.4288 50.0079 65.4288C58.5244 65.4288 65.4209 58.5323 65.4209 50.0159C65.4209 41.4995 58.5244 34.603 50.0079 34.603ZM50.0079 60.0093C44.4812 60.0093 40.0027 55.5307 40.0027 50.004C40.0027 44.4772 44.4812 39.9987 50.0079 39.9987C55.5347 39.9987 60.0132 44.4772 60.0132 50.004C60.0132 55.5307 55.5347 60.0093 50.0079 60.0093Z" fill="white"/>
<path d="M66.0284 37.5807C68.015 37.5807 69.6255 35.9702 69.6255 33.9836C69.6255 31.9969 68.015 30.3864 66.0284 30.3864C64.0417 30.3864 62.4312 31.9969 62.4312 33.9836C62.4312 35.9702 64.0417 37.5807 66.0284 37.5807Z" fill="white"/>
<defs>
<linearGradient id="paint0_linear_1467_9343" x1="50" y1="0" x2="50" y2="100" gradientUnits="userSpaceOnUse">
<stop stop-color="#449C7C"/>
<stop offset="0.546875" stop-color="#449C7C" stop-opacity="0.46"/>
<stop offset="1" stop-color="#449C7C"/>
</linearGradient>
</defs>
</svg>
