<svg width="100" height="100" viewBox="0 0 100 100" fill="none" xmlns="http://www.w3.org/2000/svg">
<path d="M0 50C0 22.3858 22.3858 0 50 0V0C77.6142 0 100 22.3858 100 50V50C100 77.6142 77.6142 100 50 100V100C22.3858 100 0 77.6142 0 50V50Z" fill="url(#paint0_linear_1467_9290)"/>
<path d="M73.4399 22.5H26.5601C25.4833 22.5 24.4506 22.9278 23.6892 23.6892C22.9278 24.4506 22.5 25.4833 22.5 26.5601V73.4399C22.5 74.5167 22.9278 75.5494 23.6892 76.3108C24.4506 77.0722 25.4833 77.5 26.5601 77.5H73.4399C74.5167 77.5 75.5494 77.0722 76.3108 76.3108C77.0722 75.5494 77.5 74.5167 77.5 73.4399V26.5601C77.5 25.4833 77.0722 24.4506 76.3108 23.6892C75.5494 22.9278 74.5167 22.5 73.4399 22.5ZM38.8931 69.3531H30.624V43.0868H38.8931V69.3531ZM34.7528 39.4469C33.8148 39.4416 32.8994 39.1586 32.1221 38.6335C31.3448 38.1085 30.7405 37.365 30.3853 36.4968C30.0302 35.6286 29.9402 34.6747 30.1267 33.7554C30.3132 32.8361 30.7679 31.9927 31.4333 31.3316C32.0987 30.6704 32.945 30.2212 33.8654 30.0406C34.7859 29.86 35.7392 29.9562 36.6051 30.3168C37.471 30.6775 38.2106 31.2866 38.7306 32.0673C39.2507 32.8479 39.5278 33.7651 39.5271 34.7031C39.5359 35.3311 39.4183 35.9545 39.1811 36.536C38.9439 37.1176 38.592 37.6454 38.1465 38.0881C37.701 38.5307 37.1709 38.8792 36.5878 39.1126C36.0048 39.3461 35.3807 39.4598 34.7528 39.4469ZM69.3722 69.376H61.1069V55.0264C61.1069 50.7944 59.308 49.4882 56.9858 49.4882C54.5337 49.4882 52.1274 51.3368 52.1274 55.1333V69.376H43.8583V43.1059H51.8104V46.7458H51.9174C52.7156 45.1302 55.5115 42.3688 59.7778 42.3688C64.3917 42.3688 69.376 45.1073 69.376 53.1281L69.3722 69.376Z" fill="white"/>
<defs>
<linearGradient id="paint0_linear_1467_9290" x1="50" y1="0" x2="50" y2="100" gradientUnits="userSpaceOnUse">
<stop stop-color="#0A66C2"/>
<stop offset="0.520833" stop-color="#0A66C2" stop-opacity="0.49"/>
<stop offset="1" stop-color="#0A66C2" stop-opacity="0.94"/>
</linearGradient>
</defs>
</svg>
