<svg width="100" height="100" viewBox="0 0 100 100" fill="none" xmlns="http://www.w3.org/2000/svg">
<path d="M0 50C0 22.3858 22.3858 0 50 0V0C77.6142 0 100 22.3858 100 50V50C100 77.6142 77.6142 100 50 100V100C22.3858 100 0 77.6142 0 50V50Z" fill="url(#paint0_linear_1467_9372)"/>
<path d="M19.6708 79.0895L23.958 63.5213C21.3075 58.9517 19.917 53.7767 19.9315 48.4864C19.9315 31.9091 33.4884 18.431 50.1303 18.431C58.2123 18.431 65.8019 21.5591 71.494 27.2386C77.2007 32.9181 80.3437 40.4716 80.3292 48.5008C80.3292 65.0781 66.7723 78.5562 50.1159 78.5562H50.1014C45.0465 78.5562 40.0785 77.2876 35.661 74.8947L19.6708 79.0895ZM36.4286 69.4603L37.3411 70.008C41.1938 72.2856 45.6114 73.4821 50.1159 73.4965H50.1303C63.9624 73.4965 75.2309 62.296 75.2309 48.5152C75.2309 41.8411 72.6238 35.5705 67.8876 30.8424C63.1513 26.1142 56.8364 23.5195 50.1303 23.5195C36.2983 23.5051 25.0298 34.7056 25.0298 48.4864C25.0298 53.2001 26.3478 57.7985 28.868 61.7771L29.4619 62.7284L26.9272 71.9397L36.4286 69.4603Z" fill="white"/>
<path d="M20.7281 78.0372L24.8705 63.0023C22.3069 58.6057 20.9599 53.6037 20.9599 48.5008C20.9744 32.5001 34.0533 19.4833 50.1304 19.4833C57.9372 19.4833 65.2515 22.5105 70.7554 27.9882C76.2593 33.4659 79.2864 40.7599 79.2864 48.5152C79.2864 64.5159 66.193 77.5327 50.1304 77.5327H50.1159C45.2348 77.5327 40.4407 76.3074 36.1824 74.001L20.7281 78.0372Z" fill="url(#paint1_linear_1467_9372)"/>
<path d="M19.6708 79.0895L23.958 63.5213C21.3075 58.9517 19.917 53.7767 19.9315 48.4864C19.9315 31.9091 33.4884 18.431 50.1303 18.431C58.2123 18.431 65.8019 21.5591 71.494 27.2386C77.2007 32.9181 80.3437 40.4716 80.3292 48.5008C80.3292 65.0781 66.7723 78.5562 50.1159 78.5562H50.1014C45.0465 78.5562 40.0785 77.2876 35.661 74.8947L19.6708 79.0895ZM36.4286 69.4603L37.3411 70.008C41.1938 72.2856 45.6114 73.4821 50.1159 73.4965H50.1303C63.9624 73.4965 75.2309 62.296 75.2309 48.5152C75.2309 41.8411 72.6238 35.5705 67.8876 30.8424C63.1513 26.1142 56.8364 23.5195 50.1303 23.5195C36.2983 23.5051 25.0298 34.7056 25.0298 48.4864C25.0298 53.2001 26.3478 57.7985 28.868 61.7771L29.4619 62.7284L26.9272 71.9397L36.4286 69.4603Z" fill="url(#paint2_linear_1467_9372)"/>
<path fill-rule="evenodd" clip-rule="evenodd" d="M42.584 35.9165C42.0192 34.6624 41.4253 34.6335 40.8894 34.6191C40.4549 34.6047 39.948 34.6047 39.441 34.6047C38.9341 34.6047 38.123 34.7921 37.4278 35.5417C36.7326 36.2913 34.7917 38.1076 34.7917 41.8122C34.7917 45.5025 37.5002 49.0774 37.8768 49.5819C38.2534 50.0865 43.1055 57.9138 50.7674 60.9266C57.1403 63.4348 58.4439 62.9303 59.8198 62.8005C61.1958 62.6708 64.2809 60.9842 64.9181 59.2256C65.541 57.467 65.541 55.9678 65.3527 55.6507C65.1644 55.3335 64.6574 55.1461 63.9043 54.7713C63.1511 54.3966 59.4432 52.5803 58.748 52.3208C58.0528 52.0757 57.5459 51.946 57.0534 52.6956C56.5465 53.4452 55.0981 55.1317 54.6636 55.6362C54.2291 56.1408 53.7801 56.1984 53.0269 55.8236C52.2737 55.4488 49.8404 54.656 46.9582 52.0901C44.7132 50.1009 43.1924 47.6359 42.7578 46.8863C42.3233 46.1367 42.7144 45.7331 43.091 45.3583C43.4241 45.0268 43.8441 44.479 44.2207 44.0466C44.5973 43.6141 44.7276 43.297 44.9739 42.7924C45.2201 42.2879 45.1042 41.8555 44.9159 41.4807C44.7276 41.1203 43.2503 37.4012 42.584 35.9165Z" fill="white"/>
<defs>
<linearGradient id="paint0_linear_1467_9372" x1="49.9974" y1="99.995" x2="49.9974" y2="-0.00349874" gradientUnits="userSpaceOnUse">
<stop stop-color="#54D09C"/>
<stop offset="1" stop-color="#60D66A"/>
</linearGradient>
<linearGradient id="paint1_linear_1467_9372" x1="50.0058" y1="78.0343" x2="50.0058" y2="19.4813" gradientUnits="userSpaceOnUse">
<stop stop-color="#20B038"/>
<stop offset="1" stop-color="#60D66A"/>
</linearGradient>
<linearGradient id="paint2_linear_1467_9372" x1="50.0059" y1="79.0838" x2="50.0059" y2="18.431" gradientUnits="userSpaceOnUse">
<stop stop-color="#F9F9F9"/>
<stop offset="1" stop-color="white"/>
</linearGradient>
</defs>
</svg>
