<svg width="100" height="100" viewBox="0 0 100 100" fill="none" xmlns="http://www.w3.org/2000/svg">
<path d="M0 50C0 22.3858 22.3858 0 50 0V0C77.6142 0 100 22.3858 100 50V50C100 77.6142 77.6142 100 50 100V100C22.3858 100 0 77.6142 0 50V50Z" fill="url(#paint0_linear_1467_9324)"/>
<path d="M65.9528 15H53.6214V62.6811C53.6214 68.3624 48.8786 73.029 42.9764 73.029C37.0742 73.029 32.3314 68.3624 32.3314 62.6811C32.3314 57.1015 36.9688 52.5361 42.6603 52.3333V40.3624C30.118 40.5652 20 50.4058 20 62.6811C20 75.0581 30.3288 85 43.0819 85C55.8347 85 66.1635 74.9566 66.1635 62.6811V38.2318C70.801 41.4783 76.4923 43.4058 82.5 43.5073V31.5362C73.2252 31.2319 65.9528 23.9275 65.9528 15Z" fill="white"/>
<defs>
<linearGradient id="paint0_linear_1467_9324" x1="50" y1="0" x2="50" y2="100" gradientUnits="userSpaceOnUse">
<stop stop-color="#D38787"/>
<stop offset="0.453125" stop-color="#D38787" stop-opacity="0.47"/>
<stop offset="1" stop-color="#D38787"/>
</linearGradient>
</defs>
</svg>
